<svg width="57" height="58" fill="none" xmlns="http://www.w3.org/2000/svg"><g id="icon02" clip-path="url('#clip0_3003_2711')" fill="#383838"><path id="Vector" d="M10.01 56.972H1.111A1.112 1.112 0 0 1 0 55.86V38.51c0-.615.498-1.113 1.112-1.113h8.897c.615 0 1.113.498 1.113 1.112v17.35c0 .615-.498 1.113-1.113 1.113Zm-7.786-2.225h6.674V39.621H2.224v15.126Z"/><path id="Vector_2" d="M25.284 57.027h-8.898a1.112 1.112 0 0 1-1.112-1.112V31.892c0-.614.498-1.113 1.112-1.113h8.898c.614 0 1.112.498 1.112 1.113v24.023c0 .614-.498 1.112-1.112 1.112Zm-7.785-2.224h6.673v-21.8h-6.673v21.8Z"/><path id="Vector_3" d="M40.558 56.972H31.66a1.112 1.112 0 0 1-1.112-1.112v-34.7c0-.615.498-1.113 1.112-1.113h8.898c.614 0 1.112.498 1.112 1.112v11.16a1.112 1.112 0 1 1-2.224 0V22.27h-6.673v32.476h6.673v-13.16a1.112 1.112 0 1 1 2.224 0V55.86c0 .614-.498 1.112-1.112 1.112Z"/><path id="Vector_4" d="M40.558 38.324a1.113 1.113 0 0 1 0-2.225c.293 0 .58.12.786.326.207.207.327.494.327.786a1.114 1.114 0 0 1-1.112 1.112Z"/><path id="Vector_5" d="M55.832 56.972h-8.898a1.112 1.112 0 0 1-1.112-1.112V14.264c0-.615.498-1.113 1.112-1.113h8.898c.614 0 1.112.498 1.112 1.113V55.86c0 .614-.498 1.112-1.112 1.112Zm-7.785-2.225h6.673V15.376h-6.673v39.371Z"/><path id="Vector_6" d="M5.56 21.197a1.113 1.113 0 0 1-.283-2.188c.228-.06 23.047-6.16 45.56-18.838a1.112 1.112 0 1 1 1.092 1.938C40.028 8.81 28.139 13.63 20.26 16.495 11.72 19.6 5.902 21.145 5.845 21.16c-.095.024-.19.037-.285.037Z"/><path id="Vector_7" d="M50.068 5.21a1.112 1.112 0 0 1-1.015-1.564l.619-1.394h-1.588a1.113 1.113 0 0 1 0-2.224h3.3A1.112 1.112 0 0 1 52.4 1.592L51.085 4.55a1.113 1.113 0 0 1-1.017.66Z"/></g><defs><clipPath id="clip0_3003_2711"><path fill="#fff" transform="translate(0 .027)" d="M0 0h57v57H0z"/></clipPath></defs></svg>