<svg width="57" height="58" fill="none" xmlns="http://www.w3.org/2000/svg"><g id="fi_7866089"><g id="XMLID_563_" fill="#383838"><path id="XMLID_564_" d="M47.508 38.038c-.535 0-.053-.022-10.659 1.09.137-1.217-.318-2.402-1.066-3.13-.065-.064-1.891-1.556-8.092-6.645-3.24-5.693-7.786-7.376-11.046-7.782-3.288-.41-6.36.306-8.33 1.17a6.386 6.386 0 0 0-4.668-2.026H1.113c-.615 0-1.113.498-1.113 1.113V40.83c0 .615.498 1.113 1.113 1.113h2.534a6.39 6.39 0 0 0 4.833-2.21 9.725 9.725 0 0 1 6.216 2.84c3.489 3.488 6.61 6.172 11.545 6.171 1.268 0-.695.197 26.441-3.458.553-.074.965-.546.965-1.103 0-3.389-2.755-6.146-6.14-6.146Zm-43.861 1.68h-1.42V22.94h1.42a4.182 4.182 0 0 1 4.178 4.178v8.42a4.183 4.183 0 0 1-4.178 4.178Zm24.682 6.613c-6.885 1.2-9.831-3.655-12.117-5.39a11.938 11.938 0 0 0-6.514-3.306 6.372 6.372 0 0 0 .353-2.095v-8.421c0-.879-.178-1.716-.5-2.479 1.544-.609 4.043-1.206 6.819-.86 4.049.504 7.238 2.806 9.48 6.841l.004-.002c.203.351-.223-.1 8.382 6.983a1.624 1.624 0 0 1-.036 2.214c-.449.46-1.116.58-1.682.31-13.56-10.262-5.902-4.45-8.338-6.31-.739-.605-1.824-.07-1.823.859 0 .392.203.745.53.95.151.119 8.375 6.355 8.508 6.427a3.659 3.659 0 0 0 4.277-.562c13.876-1.452 9.466-1.02 11.836-1.225a3.92 3.92 0 0 1 3.794 2.962c-23.95 3.235-22.928 3.096-22.973 3.104Z"/><path id="XMLID_568_" d="M55.887 18.368h-1.634a11.073 11.073 0 0 0-.755-1.822l1.155-1.155a1.114 1.114 0 0 0 0-1.575l-3.161-3.162a1.114 1.114 0 0 0-1.575 0l-1.156 1.156a11.055 11.055 0 0 0-1.822-.755V9.42c0-.615-.498-1.113-1.113-1.113h-4.471c-.615 0-1.113.498-1.113 1.113v1.634c-.629.197-1.238.45-1.822.755l-1.156-1.155a1.114 1.114 0 0 0-1.575 0l-3.161 3.161a1.113 1.113 0 0 0 0 1.575l1.156 1.155a11.064 11.064 0 0 0-.756 1.822h-1.633c-.615 0-1.114.499-1.114 1.114v4.47c0 .616.499 1.114 1.113 1.114h1.634c.197.629.45 1.238.756 1.822l-1.156 1.156a1.113 1.113 0 0 0 0 1.574l3.162 3.162c.434.434 1.14.435 1.574 0l1.156-1.156c.584.306 1.193.559 1.822.756v1.633c0 .615.498 1.114 1.113 1.114h4.471c.615 0 1.114-.499 1.114-1.114V32.38c.628-.197 1.237-.45 1.822-.756l1.155 1.156c.435.434 1.14.435 1.575 0l3.161-3.162a1.113 1.113 0 0 0 0-1.574l-1.155-1.156a11.08 11.08 0 0 0 .755-1.822h1.634c.615 0 1.113-.498 1.113-1.113v-4.471c0-.615-.498-1.114-1.113-1.114Zm-1.114 4.472h-1.372c-.52 0-.97.36-1.085.866a8.875 8.875 0 0 1-1.15 2.773 1.113 1.113 0 0 0 .155 1.381l.97.971-1.587 1.587-.97-.97a1.113 1.113 0 0 0-1.381-.156 8.87 8.87 0 0 1-2.773 1.15 1.113 1.113 0 0 0-.867 1.086V32.9h-2.245v-1.372c0-.52-.36-.97-.867-1.086a8.868 8.868 0 0 1-2.772-1.15 1.114 1.114 0 0 0-1.381.155l-.971.971-1.587-1.587.97-.971c.368-.368.432-.94.155-1.38a8.872 8.872 0 0 1-1.15-2.774 1.113 1.113 0 0 0-1.085-.866h-1.372v-2.245h1.372c.52 0 .97-.36 1.085-.867a8.87 8.87 0 0 1 1.15-2.773 1.113 1.113 0 0 0-.154-1.38l-.971-.971 1.587-1.588.97.971c.368.368.942.432 1.382.155a8.87 8.87 0 0 1 2.772-1.15c.507-.115.867-.565.867-1.085v-1.373h2.245v1.372c0 .52.36.971.867 1.086.983.223 1.916.61 2.773 1.15.44.277 1.013.213 1.38-.155l.971-.971 1.588 1.587-.971.971c-.368.368-.432.941-.155 1.381.54.857.926 1.79 1.15 2.773.115.507.565.867 1.085.867h1.372v2.245Z"/><path id="XMLID_571_" d="M43.59 15.015a6.71 6.71 0 0 0-6.702 6.702 6.71 6.71 0 0 0 6.703 6.703 6.71 6.71 0 0 0 6.702-6.703 6.71 6.71 0 0 0-6.702-6.702Zm0 11.178a4.48 4.48 0 0 1-4.475-4.476 4.48 4.48 0 0 1 4.476-4.476 4.48 4.48 0 0 1 4.475 4.476 4.48 4.48 0 0 1-4.475 4.476Z"/></g></g></svg>