<svg width="57" height="58" fill="none" xmlns="http://www.w3.org/2000/svg"><g id="fi_5568278" clip-path="url('#clip0_3003_2669')" fill="#383838"><path id="Vector" d="M28.5 38.027h-2.85a1.9 1.9 0 0 0-1.9 1.9v.95a2.85 2.85 0 0 0 2.85 2.85h1.9a2.85 2.85 0 1 0 0-5.7Zm0 3.8h-1.9a.95.95 0 0 1-.95-.95v-.95h2.85a.95.95 0 1 1 0 1.9Z"/><path id="Vector_2" d="M50.35 38.027H47.5a2.85 2.85 0 0 0 0 5.7h1.9a2.85 2.85 0 0 0 2.85-2.85v-.95a1.9 1.9 0 0 0-1.9-1.9Zm0 2.85a.95.95 0 0 1-.95.95h-1.9a.95.95 0 1 1 0-1.9h2.85v.95Z"/><path id="Vector_3" d="M40.85 38.027h-5.7a1.9 1.9 0 0 0-1.9 1.9v1.9a1.9 1.9 0 0 0 1.9 1.9h5.7a1.9 1.9 0 0 0 1.9-1.9v-1.9a1.9 1.9 0 0 0-1.9-1.9Zm-5.7 3.8v-1.9h5.7v1.9h-5.7Z"/><path id="Vector_4" d="M54.15 30.427h-.95a2.834 2.834 0 0 0-2.064.896l-1.166-3.887a3.779 3.779 0 0 0-3.64-2.709H39.9V6.677a4.756 4.756 0 0 0-4.75-4.75h-9.662A2.856 2.856 0 0 0 22.8.027h-5.7a2.855 2.855 0 0 0-2.688 1.9H4.75A4.756 4.756 0 0 0 0 6.677v38a4.755 4.755 0 0 0 4.75 4.75h15.2a2.836 2.836 0 0 0 .95 2.11v2.64a2.85 2.85 0 0 0 2.85 2.85h2.85a2.85 2.85 0 0 0 2.85-2.85v-1.9h17.1v1.9a2.85 2.85 0 0 0 2.85 2.85h2.85a2.85 2.85 0 0 0 2.85-2.85v-2.64a2.835 2.835 0 0 0 .95-2.11v-9.975a3.817 3.817 0 0 0-1.52-3.04l-.38-.285a2.85 2.85 0 1 0 0-5.7Zm-6-2.446 1.873 6.246H25.977l1.873-6.246a1.89 1.89 0 0 1 1.82-1.354h16.66a1.89 1.89 0 0 1 1.82 1.354Zm-26.3 6.246a.95.95 0 1 1 0-1.9h.95a.95.95 0 0 1 .95.95v.95h-1.9Zm3.014-2.904a2.83 2.83 0 0 0-2.064-.896h-.95a2.85 2.85 0 0 0 0 5.7l-.38.285a3.819 3.819 0 0 0-1.52 3.04v4.275H6.65a.95.95 0 0 1-.95-.95v-34.2a.95.95 0 0 1 .95-.95h26.6a.95.95 0 0 1 .95.95v16.15h-4.53a3.779 3.779 0 0 0-3.64 2.709l-1.166 3.887ZM38 6.677v18.05h-1.9V8.577a2.85 2.85 0 0 0-2.85-2.85h-5.875c.113-.304.172-.625.175-.95v-.95h7.6A2.85 2.85 0 0 1 38 6.677Zm-23.75-2.85h.95a.95.95 0 0 0 .95-.95.95.95 0 0 1 .95-.95h5.7a.95.95 0 0 1 .95.95.95.95 0 0 0 .95.95h.95v.95a.95.95 0 0 1-.95.95h-9.5a.95.95 0 0 1-.95-.95v-.95Zm-9.5 43.7a2.85 2.85 0 0 1-2.85-2.85v-38a2.85 2.85 0 0 1 2.85-2.85h7.6v.95c.003.325.062.646.175.95H6.65a2.85 2.85 0 0 0-2.85 2.85v34.2a2.85 2.85 0 0 0 2.85 2.85h13.3v1.9H4.75Zm22.8 6.65a.95.95 0 0 1-.95.95h-2.85a.95.95 0 0 1-.95-.95v-1.9h4.75v1.9Zm.453-3.8.665-1.656a1.89 1.89 0 0 1 1.761-1.194h15.142a1.89 1.89 0 0 1 1.763 1.194l.665 1.656H28.003Zm25.197 3.8a.95.95 0 0 1-.95.95H49.4a.95.95 0 0 1-.95-.95v-1.9h4.75v1.9Zm.95-4.75a.95.95 0 0 1-.95.95h-3.157l-.944-2.36a3.782 3.782 0 0 0-3.528-2.39H30.429a3.782 3.782 0 0 0-3.528 2.39l-.944 2.36H22.8a.95.95 0 0 1-.95-.95v-9.975a1.911 1.911 0 0 1 .76-1.52l2.406-1.805h25.968l2.406 1.805a1.91 1.91 0 0 1 .76 1.52v9.975Zm0-15.2h-1.9v-.95a.95.95 0 0 1 .95-.95h.95a.95.95 0 1 1 0 1.9Z"/><path id="Vector_5" d="M13.3 11.427h-1.9a2.85 2.85 0 0 0-2.85 2.85v1.9a2.85 2.85 0 0 0 2.85 2.85h1.9a2.85 2.85 0 0 0 2.85-2.85v-1.9a2.85 2.85 0 0 0-2.85-2.85Zm.95 4.75a.95.95 0 0 1-.95.95h-1.9a.95.95 0 0 1-.95-.95v-1.9a.95.95 0 0 1 .95-.95h1.9a.95.95 0 0 1 .95.95v1.9Z"/><path id="Vector_6" d="M13.3 21.877h-1.9a2.85 2.85 0 0 0-2.85 2.85v1.9a2.85 2.85 0 0 0 2.85 2.85h1.9a2.85 2.85 0 0 0 2.85-2.85v-1.9a2.85 2.85 0 0 0-2.85-2.85Zm.95 4.75a.95.95 0 0 1-.95.95h-1.9a.95.95 0 0 1-.95-.95v-1.9a.95.95 0 0 1 .95-.95h1.9a.95.95 0 0 1 .95.95v1.9Z"/><path id="Vector_7" d="M13.3 32.327h-1.9a2.85 2.85 0 0 0-2.85 2.85v1.9a2.85 2.85 0 0 0 2.85 2.85h1.9a2.85 2.85 0 0 0 2.85-2.85v-1.9a2.85 2.85 0 0 0-2.85-2.85Zm.95 4.75a.95.95 0 0 1-.95.95h-1.9a.95.95 0 0 1-.95-.95v-1.9a.95.95 0 0 1 .95-.95h1.9a.95.95 0 0 1 .95.95v1.9Z"/><path id="Vector_8" d="M23.75 22.827H19a.95.95 0 0 0 0 1.9h4.75a.95.95 0 0 0 0-1.9Z"/><path id="Vector_9" d="M22.8 26.627H19a.95.95 0 1 0 0 1.9h3.8a.95.95 0 1 0 0-1.9Z"/><path id="Vector_10" d="M19 14.277h10.45a.95.95 0 1 0 0-1.9H19a.95.95 0 1 0 0 1.9Z"/><path id="Vector_11" d="M24.7 16.177H19a.95.95 0 1 0 0 1.9h5.7a.95.95 0 1 0 0-1.9Z"/></g><defs><clipPath id="clip0_3003_2669"><path fill="#fff" transform="translate(0 .027)" d="M0 0h57v57H0z"/></clipPath></defs></svg>